<?xml version="1.0" standalone="no"?>
<!DOCTYPE svg PUBLIC "-//W3C//DTD SVG 20010904//EN"
 "http://www.w3.org/TR/2001/REC-SVG-20010904/DTD/svg10.dtd">
<svg version="1.0" xmlns="http://www.w3.org/2000/svg"
 width="955.000000pt" height="859.000000pt" viewBox="0 0 955.000000 859.000000"
 preserveAspectRatio="xMidYMid meet">

<g transform="translate(0.000000,859.000000) scale(0.100000,-0.100000)"
fill="#000000" stroke="none">
<path d="M4507 8559 c58 -64 89 -201 79 -345 -13 -190 -60 -308 -228 -579
-239 -383 -341 -611 -384 -855 -46 -261 -2 -561 115 -794 l40 -78 -57 6 c-279
30 -734 30 -1022 0 -880 -91 -1132 -447 -599 -849 561 -423 1755 -772 2924
-856 204 -14 652 -14 820 0 546 48 893 188 950 386 36 121 -9 231 -149 370
-50 50 -120 110 -156 134 l-65 45 66 -65 c74 -74 113 -134 127 -196 47 -210
-242 -365 -768 -413 -165 -14 -565 -12 -771 5 -1077 88 -2162 432 -2539 805
-81 80 -120 145 -127 215 -18 154 152 279 472 346 205 42 550 67 778 54 l133
-7 29 -46 c67 -106 239 -253 380 -324 77 -39 216 -86 323 -108 115 -25 430
-41 418 -22 -4 7 -13 12 -19 12 -7 0 -61 24 -122 54 -308 150 -501 376 -581
681 -24 88 -27 120 -28 265 -1 253 33 390 190 763 144 343 180 486 171 672
-10 188 -63 358 -158 505 -55 86 -150 180 -220 219 l-44 24 22 -24z"/>
<path d="M5228 7110 c-79 -32 -174 -97 -230 -159 -208 -225 -234 -621 -61
-931 63 -113 231 -282 353 -357 131 -80 124 -81 117 18 -8 101 -30 194 -103
438 -86 291 -98 357 -98 561 0 196 15 273 73 389 36 70 31 74 -51 41z"/>
<path d="M1917 5350 c-10 -24 -35 -225 -43 -340 -4 -57 -10 -96 -13 -87 -16
43 -234 203 -347 253 -114 50 -200 68 -329 68 -138 0 -211 -16 -320 -71 -244
-122 -414 -364 -477 -678 -16 -84 -19 -126 -15 -265 3 -97 12 -196 22 -240 44
-199 134 -402 267 -602 100 -151 312 -368 456 -468 211 -148 451 -258 704
-325 113 -30 336 -70 325 -59 -2 2 -49 26 -105 53 -351 172 -632 367 -857 595
-279 284 -415 568 -415 870 0 192 61 350 180 467 86 85 152 112 255 107 102
-5 181 -46 296 -155 138 -132 248 -285 392 -548 68 -124 165 -331 242 -515
299 -713 910 -1343 1660 -1710 446 -219 866 -320 1320 -320 149 0 367 19 381
32 4 5 -31 429 -41 493 l-5 30 -257 0 c-285 1 -430 15 -687 66 -598 120 -1133
412 -1487 812 -226 255 -459 616 -631 975 -219 460 -391 1024 -453 1482 -6 52
-15 88 -18 80z"/>
<path d="M8305 4364 c-74 -11 -237 -48 -310 -71 -88 -27 -298 -113 -292 -119
2 -2 35 7 73 20 174 59 247 70 449 71 204 0 245 -7 385 -62 473 -189 693 -745
559 -1414 -137 -688 -601 -1369 -1165 -1710 -523 -316 -1086 -368 -1477 -138
-100 59 -251 211 -311 314 -197 338 -215 814 -50 1325 192 596 564 1128 1139
1628 l50 44 -100 -53 c-733 -384 -1249 -1065 -1408 -1859 -99 -492 -55 -984
120 -1334 160 -320 372 -484 755 -585 147 -39 208 -49 359 -61 543 -41 1085
177 1518 611 467 468 825 1172 928 1823 25 157 25 532 0 666 -87 462 -354 771
-757 877 -80 21 -122 26 -265 28 -93 2 -183 1 -200 -1z"/>
<path d="M8390 3888 c0 -282 -118 -518 -360 -721 -109 -91 -220 -163 -510
-332 -354 -207 -488 -302 -616 -437 -252 -266 -349 -618 -280 -1016 15 -83 56
-235 63 -229 1 2 17 52 33 110 107 382 264 676 482 902 131 137 264 239 513
395 249 157 317 202 417 283 247 198 360 479 328 815 -9 94 -51 297 -66 311
-2 2 -4 -34 -4 -81z"/>
<path d="M1865 2289 c-996 -62 -1680 -306 -1836 -655 -30 -66 -32 -205 -5
-282 49 -143 211 -315 433 -462 1128 -747 3759 -1112 5298 -734 243 60 477
153 624 248 39 25 71 47 71 49 0 3 -42 -6 -94 -18 -367 -89 -789 -129 -1366
-129 -385 0 -567 8 -915 40 -1440 130 -2754 530 -3195 973 -110 111 -151 186
-158 288 -4 67 -2 79 26 136 153 310 850 509 1872 535 221 5 256 8 180 13
-133 9 -778 8 -935 -2z"/>
</g>
</svg>
